<?xml version="1.0" encoding="UTF-8" standalone="no"?>
<svg
   id="a"
   viewBox="0 0 216 118"
   version="1.1"
   sodipodi:docname="2022-Logo-Stacked-Color-PVD-edited.svg"
   width="216"
   height="118"
   inkscape:version="1.1.1 (c3084ef, 2021-09-22)"
   xmlns:inkscape="http://www.inkscape.org/namespaces/inkscape"
   xmlns:sodipodi="http://sodipodi.sourceforge.net/DTD/sodipodi-0.dtd"
   xmlns="http://www.w3.org/2000/svg"
   xmlns:svg="http://www.w3.org/2000/svg">
  <sodipodi:namedview
     id="namedview87"
     pagecolor="#ffffff"
     bordercolor="#666666"
     borderopacity="1.0"
     inkscape:pageshadow="2"
     inkscape:pageopacity="0.0"
     inkscape:pagecheckerboard="0"
     showgrid="false"
     inkscape:zoom="5.0138889"
     inkscape:cx="94.637119"
     inkscape:cy="67.512465"
     inkscape:window-width="2306"
     inkscape:window-height="953"
     inkscape:window-x="152"
     inkscape:window-y="25"
     inkscape:window-maximized="0"
     inkscape:current-layer="a" />
  <defs
     id="defs4">
    <style
       id="style2">.b{fill:#03384f;}.c{fill:#abbec7;}</style>
  </defs>
  <g
     id="g26"
     transform="matrix(1.1334807,0,0,1.237333,-14.27042,-58.66055)">
    <path
       class="c"
       d="m 60.71,141.59 v -8.4 h 3.28 c 0.74,0 1.36,0.12 1.88,0.35 0.52,0.23 0.92,0.57 1.2,1.01 0.28,0.44 0.42,0.96 0.42,1.57 0,0.61 -0.14,1.13 -0.42,1.57 -0.28,0.44 -0.68,0.77 -1.2,1.01 -0.52,0.24 -1.15,0.35 -1.88,0.35 h -2.62 l 0.54,-0.56 v 3.11 h -1.2 z m 1.2,-2.99 -0.54,-0.6 h 2.58 c 0.77,0 1.35,-0.16 1.75,-0.49 0.4,-0.33 0.59,-0.79 0.59,-1.39 0,-0.6 -0.2,-1.06 -0.59,-1.39 -0.39,-0.33 -0.98,-0.49 -1.75,-0.49 h -2.58 l 0.54,-0.6 v 4.97 z"
       id="path6" />
    <path
       class="c"
       d="m 70.53,141.59 v -8.4 h 3.28 c 0.74,0 1.36,0.12 1.88,0.35 0.52,0.23 0.92,0.57 1.2,1.01 0.28,0.44 0.42,0.96 0.42,1.57 0,0.61 -0.14,1.13 -0.42,1.57 -0.28,0.44 -0.68,0.77 -1.2,1 -0.52,0.23 -1.15,0.35 -1.88,0.35 h -2.62 l 0.54,-0.55 v 3.11 h -1.2 z m 1.2,-2.99 -0.54,-0.59 h 2.58 c 0.77,0 1.35,-0.17 1.75,-0.5 0.4,-0.33 0.59,-0.8 0.59,-1.4 0,-0.6 -0.2,-1.06 -0.59,-1.39 -0.39,-0.33 -0.98,-0.49 -1.75,-0.49 h -2.58 l 0.54,-0.6 z m 4.42,2.99 -2.14,-3.05 h 1.28 l 2.16,3.05 h -1.31 z"
       id="path8" />
    <path
       class="c"
       d="m 84.5,141.68 c -0.64,0 -1.23,-0.11 -1.78,-0.32 -0.55,-0.21 -1.02,-0.52 -1.42,-0.91 -0.4,-0.39 -0.71,-0.84 -0.94,-1.36 -0.22,-0.52 -0.34,-1.09 -0.34,-1.7 0,-0.61 0.11,-1.18 0.34,-1.7 0.22,-0.52 0.54,-0.97 0.94,-1.36 0.4,-0.39 0.87,-0.69 1.42,-0.91 0.54,-0.22 1.14,-0.32 1.79,-0.32 0.65,0 1.23,0.11 1.78,0.32 0.54,0.21 1.02,0.51 1.42,0.9 0.4,0.39 0.71,0.84 0.93,1.37 0.22,0.52 0.33,1.09 0.33,1.71 0,0.62 -0.11,1.2 -0.33,1.72 -0.22,0.52 -0.53,0.97 -0.93,1.36 -0.4,0.39 -0.87,0.69 -1.42,0.9 -0.54,0.21 -1.14,0.32 -1.78,0.32 z m -0.01,-1.07 c 0.47,0 0.91,-0.08 1.3,-0.24 0.39,-0.16 0.74,-0.39 1.03,-0.68 0.29,-0.29 0.52,-0.63 0.68,-1.03 0.16,-0.39 0.25,-0.82 0.25,-1.28 0,-0.46 -0.08,-0.89 -0.25,-1.28 -0.16,-0.39 -0.39,-0.73 -0.68,-1.03 -0.29,-0.3 -0.64,-0.52 -1.03,-0.68 -0.39,-0.16 -0.83,-0.24 -1.3,-0.24 -0.47,0 -0.89,0.08 -1.29,0.24 -0.4,0.16 -0.74,0.39 -1.04,0.68 -0.3,0.29 -0.53,0.64 -0.69,1.03 -0.16,0.39 -0.25,0.81 -0.25,1.28 0,0.47 0.08,0.89 0.25,1.28 0.17,0.39 0.39,0.73 0.69,1.03 0.3,0.29 0.64,0.52 1.04,0.68 0.4,0.16 0.83,0.24 1.29,0.24 z"
       id="path10" />
    <path
       class="c"
       d="m 94.4,141.59 -3.7,-8.4 H 92 l 3.4,7.75 h -0.74 l 3.42,-7.75 h 1.2 l -3.68,8.4 h -1.19 z"
       id="path12" />
    <path
       class="c"
       d="m 101.93,141.59 v -8.4 h 1.2 v 8.4 z"
       id="path14" />
    <path
       class="c"
       d="m 106.83,141.59 v -8.4 h 3.54 c 0.9,0 1.69,0.18 2.37,0.53 0.68,0.35 1.22,0.84 1.6,1.48 0.38,0.64 0.57,1.36 0.57,2.2 0,0.84 -0.19,1.56 -0.57,2.2 -0.38,0.64 -0.91,1.12 -1.6,1.48 -0.68,0.35 -1.47,0.53 -2.37,0.53 h -3.54 z m 1.2,-1.04 h 2.27 c 0.7,0 1.3,-0.13 1.81,-0.4 0.51,-0.26 0.9,-0.63 1.18,-1.11 0.28,-0.48 0.42,-1.03 0.42,-1.65 0,-0.62 -0.14,-1.18 -0.42,-1.66 -0.28,-0.48 -0.67,-0.84 -1.18,-1.1 -0.51,-0.26 -1.11,-0.4 -1.81,-0.4 h -2.27 v 6.31 z"
       id="path16" />
    <path
       class="c"
       d="m 119.32,140.54 h 4.9 v 1.04 h -6.1 v -8.4 h 5.93 v 1.04 h -4.73 v 6.31 z m -0.11,-3.73 h 4.32 v 1.02 h -4.32 z"
       id="path18" />
    <path
       class="c"
       d="m 127.22,141.59 v -8.4 h 0.98 l 5.56,6.9 h -0.52 v -6.9 h 1.2 v 8.4 h -0.98 l -5.56,-6.9 h 0.52 v 6.9 z"
       id="path20" />
    <path
       class="c"
       d="m 142.11,141.68 c -0.64,0 -1.23,-0.11 -1.77,-0.32 -0.54,-0.21 -1.01,-0.51 -1.4,-0.9 -0.4,-0.39 -0.71,-0.84 -0.93,-1.36 -0.22,-0.52 -0.34,-1.09 -0.34,-1.72 0,-0.63 0.11,-1.2 0.34,-1.72 0.22,-0.52 0.54,-0.97 0.94,-1.36 0.4,-0.39 0.87,-0.69 1.41,-0.9 0.54,-0.21 1.13,-0.32 1.77,-0.32 0.64,0 1.25,0.11 1.79,0.33 0.55,0.22 1.01,0.55 1.4,0.98 l -0.78,0.76 c -0.32,-0.34 -0.68,-0.59 -1.08,-0.75 -0.4,-0.16 -0.83,-0.25 -1.28,-0.25 -0.45,0 -0.91,0.08 -1.31,0.24 -0.4,0.16 -0.75,0.38 -1.05,0.67 -0.3,0.29 -0.53,0.63 -0.69,1.03 -0.16,0.4 -0.25,0.83 -0.25,1.29 0,0.46 0.08,0.89 0.25,1.29 0.17,0.4 0.39,0.74 0.69,1.03 0.3,0.29 0.65,0.51 1.05,0.67 0.4,0.16 0.84,0.24 1.31,0.24 0.47,0 0.88,-0.08 1.28,-0.25 0.4,-0.16 0.76,-0.42 1.08,-0.76 l 0.78,0.76 c -0.38,0.43 -0.85,0.76 -1.4,0.98 -0.55,0.22 -1.15,0.34 -1.81,0.34 z"
       id="path22" />
    <path
       class="c"
       d="m 149.37,140.54 h 4.9 v 1.04 h -6.1 v -8.4 h 5.93 v 1.04 h -4.73 v 6.31 z m -0.11,-3.73 h 4.32 v 1.02 h -4.32 z"
       id="path24" />
  </g>
  <g
     id="g56"
     transform="matrix(1.1334807,0,0,1.237333,-14.27042,-58.66055)">
    <path
       class="b"
       d="m 17.87,121.49 c 0,1.58 0.14,2.22 0.7,2.86 0.56,0.66 1.48,1.04 2.5,1.04 1.22,0 2.18,-0.54 2.74,-1.54 0.36,-0.64 0.44,-1.14 0.44,-2.7 v -8.54 h -1.6 v -0.36 h 3.52 v 0.36 h -1.46 v 8.54 c 0,1.56 -0.18,2.38 -0.66,3.1 -0.68,1.04 -1.78,1.54 -3.34,1.54 -1.56,0 -2.8,-0.4 -3.54,-1.08 -0.86,-0.8 -1.16,-1.9 -1.16,-4.1 v -8 h -1.74 v -0.36 h 5.32 v 0.36 h -1.72 z"
       id="path28" />
    <path
       class="b"
       d="m 31.36,112.71 v 12.52 h 1.86 v 0.36 h -4.06 v -0.36 h 1.74 v -12.62 h -1.74 v -0.36 h 4.22 l 6.3,9.64 v -9.28 h -1.74 v -0.36 h 3.66 v 0.36 h -1.46 v 12.98 h -0.32 z"
       id="path30" />
    <path
       class="b"
       d="m 46.49,112.61 h -1.74 v -0.36 h 5.32 v 0.36 h -1.72 v 12.62 h 1.72 v 0.36 h -5.32 v -0.36 h 1.74 z"
       id="path32" />
    <path
       class="b"
       d="m 62.76,112.61 h -1.98 v -0.36 h 3.76 v 0.36 h -1.32 l -4.18,13.18 h -0.4 l -4.62,-13.18 h -1.3 v -0.36 h 5.26 v 0.36 h -1.94 l 3.54,10.1 z"
       id="path34" />
    <path
       class="b"
       d="M 76.86,115.87 H 76.6 c -0.58,-2.62 -1.44,-3.3 -4.14,-3.26 h -1.7 v 6.04 h 0.92 c 1.56,0 2.14,-0.58 2.14,-2.12 v -0.38 h 0.28 v 5.48 h -0.28 v -0.46 c -0.02,-1.56 -0.66,-2.18 -2.18,-2.16 h -0.88 v 6.22 h 2.66 c 1.82,0.02 2.18,-0.16 2.94,-1.48 0.26,-0.48 0.52,-1.24 0.82,-2.32 h 0.26 l -0.4,4.16 h -9.88 v -0.36 h 1.74 v -12.62 h -1.74 v -0.36 h 9.44 z"
       id="path36" />
    <path
       class="b"
       d="m 84.06,125.23 h 1.86 v 0.36 h -5.46 v -0.36 h 1.74 v -12.62 h -1.74 v -0.36 h 5.44 c 1.88,0 2.68,0.16 3.44,0.68 0.84,0.56 1.28,1.38 1.28,2.42 0,0.88 -0.38,1.62 -1.16,2.24 -0.72,0.58 -1.42,0.82 -2.98,1 2.38,0.32 3.64,1.6 3.7,3.74 v 1.1 c 0,0.72 0.04,1.04 0.18,1.32 0.14,0.3 0.48,0.52 0.84,0.52 0.24,0 0.44,-0.06 0.82,-0.26 l 0.12,0.34 c -0.56,0.26 -0.84,0.34 -1.4,0.34 -0.86,0 -1.52,-0.3 -2.02,-0.92 -0.48,-0.6 -0.66,-1.32 -0.66,-2.48 v -0.98 c -0.08,-1.88 -0.8,-2.56 -2.8,-2.62 h -1.2 z m 1.3,-6.9 c 2.16,0 3.18,-0.92 3.18,-2.86 0,-1.94 -0.92,-2.86 -3.06,-2.86 h -1.42 v 5.72 z"
       id="path38" />
    <path
       class="b"
       d="m 102.69,115.53 h -0.4 c -0.12,-0.88 -0.28,-1.32 -0.62,-1.8 -0.58,-0.82 -1.5,-1.28 -2.56,-1.28 -1.46,0 -2.6,1.08 -2.6,2.44 0,1.14 0.72,1.74 2.68,2.24 l 1.06,0.28 c 2.2,0.56 3.16,1.74 3.16,3.86 0,2.68 -1.6,4.52 -3.92,4.52 -1.2,0 -2.02,-0.36 -3.08,-1.32 l -0.7,1.12 h -0.26 l -0.14,-4.14 h 0.4 c 0.16,1.1 0.34,1.62 0.74,2.22 0.7,1.08 1.84,1.72 3.08,1.72 1.74,0 2.92,-1.2 2.92,-2.94 0,-1.44 -0.7,-2.18 -2.46,-2.66 l -1.54,-0.4 c -1.98,-0.54 -2.88,-1.58 -2.88,-3.38 0,-2.24 1.58,-3.96 3.64,-3.96 0.9,0 1.7,0.28 2.56,0.88 l 0.62,-0.86 h 0.28 z"
       id="path40" />
    <path
       class="b"
       d="m 108.06,112.61 h -1.74 v -0.36 h 5.32 v 0.36 h -1.72 v 12.62 h 1.72 v 0.36 h -5.32 v -0.36 h 1.74 z"
       id="path42" />
    <path
       class="b"
       d="m 121,125.23 h 2 v 0.36 h -5.86 v -0.36 h 2 v -12.62 h -0.96 c -1.34,0 -1.78,0.22 -2.46,1.24 -0.44,0.72 -0.68,1.4 -0.94,2.6 l -0.26,-0.04 0.14,-4.16 h 10.72 l 0.26,4.16 -0.26,0.04 c -0.8,-2.94 -1.58,-3.82 -3.38,-3.84 h -1 z"
       id="path44" />
    <path
       class="b"
       d="m 134.98,125.23 h 2 v 0.36 h -5.86 v -0.36 h 2 v -5.88 l -4.02,-6.74 h -1.14 v -0.36 h 5.16 v 0.36 h -1.76 l 3.5,5.92 3.06,-5.92 h -1.96 v -0.36 h 3.82 v 0.36 h -1.38 l -3.42,6.74 z"
       id="path46" />
    <path
       class="b"
       d="m 158.44,115.71 h -0.26 c -0.28,-1.02 -0.54,-1.52 -1.1,-2.1 -0.74,-0.76 -1.7,-1.16 -2.78,-1.16 -1.62,0 -2.8,0.84 -3.2,2.28 -0.22,0.76 -0.32,2.24 -0.32,4.38 0,2.92 0.12,3.92 0.52,4.7 0.52,0.96 1.64,1.58 2.9,1.58 1.16,0 2.22,-0.54 2.96,-1.5 0.38,-0.48 0.62,-0.98 1.02,-2 h 0.26 v 3.7 h -0.26 l -0.66,-1 c -1.3,0.88 -2.2,1.2 -3.34,1.2 -3.12,0 -5.66,-3.02 -5.66,-6.76 0,-1.9 0.52,-3.54 1.56,-4.8 1.12,-1.42 2.62,-2.18 4.24,-2.18 1.18,0 2.04,0.32 3.2,1.2 l 0.66,-1 h 0.26 z"
       id="path48" />
    <path
       class="b"
       d="m 161.71,125.59 v -0.36 h 1.74 v -12.62 h -1.74 v -0.36 h 5.32 v 0.36 h -1.72 v 12.62 h 2.84 c 2.04,0.06 2.8,-0.78 3.42,-3.74 h 0.28 l -0.28,4.1 z"
       id="path50" />
    <path
       class="b"
       d="m 177.51,121.49 c 0,1.58 0.14,2.22 0.7,2.86 0.56,0.66 1.48,1.04 2.5,1.04 1.22,0 2.18,-0.54 2.74,-1.54 0.36,-0.64 0.44,-1.14 0.44,-2.7 v -8.54 h -1.6 v -0.36 h 3.52 v 0.36 h -1.46 v 8.54 c 0,1.56 -0.18,2.38 -0.66,3.1 -0.68,1.04 -1.78,1.54 -3.34,1.54 -1.56,0 -2.8,-0.4 -3.54,-1.08 -0.86,-0.8 -1.16,-1.9 -1.16,-4.1 v -8 h -1.74 v -0.36 h 5.32 v 0.36 h -1.72 z"
       id="path52" />
    <path
       class="b"
       d="m 190.63,112.61 h -1.74 v -0.36 h 4.88 c 1.7,0 2.9,0.24 3.72,0.72 1,0.58 1.54,1.48 1.54,2.54 0,1.56 -1.16,2.62 -3.4,3.08 1.42,0.22 2.08,0.46 2.76,1 0.8,0.62 1.16,1.34 1.16,2.4 0,1.18 -0.46,2.1 -1.36,2.72 -0.88,0.64 -2,0.88 -3.94,0.88 h -5.36 v -0.36 h 1.74 z m 3.24,5.82 c 2.3,0 3.2,-0.8 3.2,-2.86 0,-2.06 -0.98,-2.96 -3.5,-2.96 h -1.08 v 5.82 z m 0.38,6.8 c 2.12,0 3.08,-0.98 3.08,-3.22 0,-2.24 -0.96,-3.22 -3.52,-3.22 h -1.32 v 6.44 z"
       id="path54" />
  </g>
  <g
     id="g66"
     transform="matrix(1.1334807,0,0,1.237333,-14.27042,-58.66055)">
    <path
       class="b"
       d="m 118.62,86.96 c -1.25,1.63 -3.05,2.54 -5.01,2.54 -2.13,0 -4.03,-1.05 -4.91,-2.68 -0.43,-0.84 -0.67,-1.84 -0.79,-3.74 -0.02,-0.3 -0.03,-0.62 -0.05,-0.96 0,-0.2 -0.01,-0.42 -0.02,-0.64 0,-0.31 -0.01,-0.63 -0.02,-0.98 0,-0.5 0,-1.04 0,-1.64 0,-3.62 0.17,-6.13 0.54,-7.42 0.43,-1.56 1.42,-2.7 2.79,-3.32 v -0.78 c -1.7,0.56 -3.25,1.65 -4.51,3.25 -1.76,2.13 -2.64,4.91 -2.64,8.13 0,0.39 0.02,0.77 0.05,1.15 0.03,0.4 0.08,0.79 0.15,1.18 0.06,0.37 0.14,0.74 0.24,1.09 0.09,0.34 0.19,0.68 0.31,1 1.45,4.13 4.87,7.02 8.84,7.02 1.93,0 3.45,-0.54 5.65,-2.03 l 1.12,1.69 h 0.44 v -6.26 h -0.44 c -0.68,1.73 -1.08,2.57 -1.73,3.39 z"
       id="path58" />
    <path
       class="b"
       d="m 120.35,67.25 -1.12,1.69 c -1.95,-1.48 -3.4,-2.02 -5.37,-2.03 v 0.68 c 1.79,0.02 3.39,0.69 4.62,1.96 0.95,0.98 1.39,1.83 1.86,3.56 h 0.44 v -5.86 h -0.44 z"
       id="path60" />
    <path
       class="b"
       d="m 112.11,66.11 v 8.29 c 0,2.64 -0.14,3.49 -0.74,4.57 -0.6,1.07 -1.48,1.83 -2.56,2.24 0,0.23 0.01,0.45 0.02,0.66 1.26,-0.41 2.24,-1.14 2.95,-2.23 0.81,-1.22 1.12,-2.61 1.12,-5.25 V 59.93 h 2.47 v -0.61 h -5.96 v 0.61 h 2.71 v 6.17 z"
       id="path62" />
    <path
       class="b"
       d="m 102.5,79.82 c -0.95,-1.08 -1.19,-2.17 -1.19,-4.84 V 59.94 h 2.91 v -0.61 h -9.01 v 0.61 h 2.95 v 13.55 c 0,3.73 0.51,5.59 1.96,6.94 0.78,0.72 1.91,1.25 3.28,1.55 -0.12,-0.51 -0.21,-1.03 -0.27,-1.56 -0.23,-0.18 -0.45,-0.38 -0.64,-0.6 z"
       id="path64" />
  </g>
  <g
     id="g76"
     transform="matrix(1.1334807,0,0,1.237333,-14.27042,-58.66055)">
    <polygon
       class="b"
       points="101.42,102.05 101.99,102.05 101.99,97.99 100.5,97.99 100.5,98.49 101.42,98.49 "
       id="polygon68" />
    <path
       class="b"
       d="m 106.06,99.92 c 0.17,-0.08 0.31,-0.18 0.41,-0.31 0.12,-0.16 0.17,-0.34 0.17,-0.56 0,-0.23 -0.06,-0.43 -0.19,-0.59 -0.12,-0.16 -0.3,-0.29 -0.52,-0.38 -0.22,-0.09 -0.48,-0.13 -0.77,-0.13 -0.29,0 -0.55,0.04 -0.77,0.13 -0.22,0.09 -0.39,0.22 -0.51,0.38 -0.12,0.16 -0.18,0.36 -0.18,0.59 0,0.23 0.06,0.4 0.17,0.56 0.1,0.13 0.24,0.23 0.4,0.31 -0.23,0.09 -0.41,0.21 -0.53,0.38 -0.13,0.17 -0.19,0.37 -0.19,0.61 0,0.24 0.07,0.46 0.2,0.64 0.13,0.18 0.32,0.32 0.56,0.42 0.24,0.1 0.53,0.15 0.85,0.15 0.32,0 0.62,-0.05 0.86,-0.15 0.24,-0.1 0.43,-0.24 0.56,-0.42 0.13,-0.18 0.2,-0.39 0.2,-0.64 0,-0.25 -0.06,-0.44 -0.19,-0.61 -0.12,-0.17 -0.31,-0.29 -0.54,-0.38 z m -1.54,-1.33 c 0.16,-0.12 0.38,-0.17 0.65,-0.17 0.27,0 0.49,0.06 0.66,0.17 0.17,0.12 0.25,0.28 0.25,0.48 0,0.2 -0.08,0.36 -0.24,0.48 -0.16,0.12 -0.38,0.17 -0.67,0.17 -0.29,0 -0.5,-0.06 -0.65,-0.17 -0.16,-0.12 -0.24,-0.28 -0.24,-0.48 0,-0.2 0.08,-0.37 0.24,-0.48 z m 1.41,2.84 c -0.18,0.13 -0.44,0.2 -0.76,0.2 -0.32,0 -0.57,-0.07 -0.76,-0.2 -0.18,-0.13 -0.27,-0.31 -0.27,-0.54 0,-0.23 0.09,-0.4 0.27,-0.53 0.18,-0.13 0.43,-0.19 0.76,-0.19 0.33,0 0.58,0.07 0.76,0.19 0.18,0.13 0.28,0.31 0.28,0.53 0,0.22 -0.09,0.41 -0.28,0.54 z"
       id="path70" />
    <path
       class="b"
       d="m 110.34,98.18 c -0.25,-0.16 -0.56,-0.24 -0.93,-0.24 -0.27,0 -0.51,0.05 -0.73,0.16 -0.22,0.1 -0.39,0.25 -0.52,0.44 -0.13,0.19 -0.19,0.42 -0.19,0.68 0,0.26 0.06,0.47 0.18,0.65 0.12,0.18 0.28,0.33 0.49,0.43 0.21,0.1 0.45,0.15 0.71,0.15 0.21,0 0.4,-0.03 0.58,-0.09 0.18,-0.06 0.33,-0.15 0.45,-0.27 0.05,-0.05 0.1,-0.11 0.14,-0.17 0,0.05 0,0.11 0,0.15 0,0.51 -0.12,0.89 -0.37,1.15 -0.24,0.26 -0.57,0.39 -0.98,0.39 -0.15,0 -0.29,-0.01 -0.42,-0.04 -0.13,-0.03 -0.25,-0.08 -0.36,-0.15 l -0.22,0.45 c 0.13,0.08 0.29,0.14 0.46,0.18 0.18,0.04 0.36,0.06 0.55,0.06 0.38,0 0.72,-0.08 1.01,-0.24 0.29,-0.16 0.51,-0.4 0.67,-0.72 0.16,-0.32 0.24,-0.71 0.24,-1.17 0,-0.43 -0.07,-0.8 -0.2,-1.1 -0.13,-0.3 -0.32,-0.53 -0.58,-0.69 z m -0.06,1.42 c -0.08,0.12 -0.19,0.22 -0.33,0.29 -0.14,0.07 -0.31,0.1 -0.49,0.1 -0.28,0 -0.51,-0.07 -0.67,-0.21 -0.17,-0.14 -0.25,-0.33 -0.25,-0.57 0,-0.16 0.04,-0.3 0.11,-0.42 0.08,-0.12 0.18,-0.21 0.32,-0.27 0.14,-0.07 0.29,-0.1 0.46,-0.1 0.21,0 0.39,0.04 0.53,0.11 0.14,0.07 0.25,0.17 0.33,0.28 0.07,0.12 0.11,0.25 0.11,0.39 0,0.14 -0.04,0.28 -0.12,0.4 z"
       id="path72" />
    <path
       class="b"
       d="m 115.3,98.87 c -0.13,-0.3 -0.32,-0.53 -0.58,-0.69 -0.25,-0.16 -0.56,-0.24 -0.93,-0.24 -0.27,0 -0.51,0.05 -0.73,0.16 -0.22,0.1 -0.39,0.25 -0.52,0.44 -0.13,0.19 -0.19,0.42 -0.19,0.68 0,0.26 0.06,0.47 0.18,0.65 0.12,0.18 0.28,0.33 0.49,0.43 0.21,0.1 0.45,0.15 0.71,0.15 0.21,0 0.4,-0.03 0.58,-0.09 0.18,-0.06 0.33,-0.15 0.45,-0.27 0.05,-0.05 0.1,-0.11 0.14,-0.17 0,0.05 0,0.11 0,0.15 0,0.51 -0.12,0.89 -0.37,1.15 -0.24,0.26 -0.57,0.39 -0.98,0.39 -0.15,0 -0.29,-0.01 -0.42,-0.04 -0.13,-0.03 -0.25,-0.08 -0.36,-0.15 l -0.22,0.45 c 0.13,0.08 0.29,0.14 0.46,0.18 0.18,0.04 0.36,0.06 0.55,0.06 0.38,0 0.72,-0.08 1.01,-0.24 0.29,-0.16 0.51,-0.4 0.67,-0.72 0.16,-0.32 0.24,-0.71 0.24,-1.17 0,-0.43 -0.07,-0.8 -0.2,-1.1 z m -0.64,0.73 c -0.08,0.12 -0.19,0.22 -0.33,0.29 -0.14,0.07 -0.31,0.1 -0.49,0.1 -0.28,0 -0.51,-0.07 -0.67,-0.21 -0.17,-0.14 -0.25,-0.33 -0.25,-0.57 0,-0.16 0.04,-0.3 0.11,-0.42 0.08,-0.12 0.18,-0.21 0.32,-0.27 0.14,-0.07 0.29,-0.1 0.46,-0.1 0.21,0 0.39,0.04 0.53,0.11 0.14,0.07 0.25,0.17 0.33,0.28 0.07,0.12 0.11,0.25 0.11,0.39 0,0.14 -0.04,0.28 -0.12,0.4 z"
       id="path74" />
  </g>
  <path
     class="c"
     d="m 96.822022,2.290471 c -0.419388,0 -1.110811,0.08661 -1.734226,0.494933 -0.623414,0.40832 -1.008797,1.026986 -1.201489,1.41056 -0.09068,0.1856 0.02267,0.3712 0.215361,0.358826 0.396718,-0.03712 1.054137,-0.160853 1.654882,-0.544426 0.600745,-0.383573 1.031467,-0.96512 1.258164,-1.33632 0.113348,-0.173226 0,-0.383573 -0.192692,-0.383573 z"
     id="path78"
     style="stroke-width:1.18427" />
  <path
     class="c"
     d="m 89.216366,58.9232 c -0.294705,-0.48256 -0.555405,-1.051733 -0.714092,-1.707519 0.204026,-0.272214 0.725427,-1.200213 0.578075,-2.697386 -0.181357,-1.806506 -1.065472,-3.860479 -1.065472,-3.872852 0.02267,0 -1.235494,0.742399 -1.20149,2.623146 0.034,1.410559 0.89545,2.994345 1.360177,3.674878 0.113348,0.51968 0.28337,0.977493 0.487397,1.41056 -2.142279,-2.388053 -3.944513,-5.110185 -5.361364,-8.055038 -0.124683,-0.544426 -0.192691,-1.175466 -0.102013,-1.855999 0.124683,-0.11136 0.351379,-0.29696 0.600745,-0.581546 0.340044,-0.346454 0.714093,-0.878507 0.929454,-1.63328 0.28337,-1.00224 0.28337,-2.165333 0.249366,-2.907732 -0.02267,-0.433067 -0.06801,-0.717653 -0.07934,-0.717653 -0.02267,0.01237 -1.428186,0.321706 -1.983591,1.893119 -0.28337,0.81664 -0.260701,1.806506 -0.136018,2.573652 0.04534,0.395947 0.124683,0.7424 0.181357,1.00224 -0.09068,0.507307 -0.07934,0.989867 -0.034,1.44768 -1.17882,-2.586026 -2.0516,-5.357652 -2.618341,-8.240638 0,-0.581546 0.102014,-1.274453 0.430723,-1.954986 0.147352,-0.08661 0.419388,-0.210346 0.736762,-0.395946 0.430723,-0.197974 0.963459,-0.532054 1.394182,-1.138347 0.555405,-0.779519 0.838775,-1.806506 0.986128,-2.462292 0.07934,-0.3712 0.09068,-0.643413 0.05667,-0.643413 -0.06801,0 -1.450855,-0.08661 -2.368975,1.088853 -0.498731,0.643413 -0.725427,1.534292 -0.816106,2.227199 -0.06801,0.346453 -0.102013,0.655786 -0.124683,0.903253 -0.249366,0.457813 -0.385383,0.928 -0.464727,1.37344 -0.215361,-1.311573 -0.385383,-2.647893 -0.464727,-4.008959 -0.07934,-1.274453 -0.07934,-2.548906 -0.034,-3.810986 0.124683,-0.5568 0.385383,-1.237333 0.895449,-1.806506 0.170022,-0.07424 0.453393,-0.136106 0.804772,-0.22272 0.453392,-0.03712 1.065472,-0.1856 1.620877,-0.606293 0.702758,-0.532053 1.190155,-1.373439 1.46219,-1.905493 0.147353,-0.29696 0.192692,-0.532053 0.147353,-0.556799 -0.113348,-0.03712 -1.371512,-0.420694 -2.448319,0.334079 -0.623414,0.44544 -1.042802,1.18784 -1.280833,1.769387 -0.147352,0.272213 -0.2607,0.519679 -0.351379,0.730026 -0.362714,0.3712 -0.612079,0.791893 -0.793436,1.200213 0.147352,-2.350933 0.498731,-4.652372 1.054137,-6.879571 0.226696,-0.507307 0.634749,-1.175467 1.303503,-1.620906 0.192691,-0.04949 0.476061,-0.06187 0.816106,-0.07424 0.442057,0.08661 1.054137,0.136106 1.688886,-0.09899 0.770767,-0.29696 1.371511,-0.915626 1.72289,-1.323946 0.181357,-0.210347 0.249366,-0.433067 0.181357,-0.470187 -0.147352,-0.08661 -1.212824,-0.655786 -2.3123,-0.284586 -0.691423,0.235093 -1.235494,0.816639 -1.564204,1.274452 -0.204026,0.173227 -0.362713,0.358827 -0.498731,0.51968 -0.442058,0.25984 -0.770767,0.606294 -1.031468,0.952747 0.555406,-1.992106 1.280834,-3.909972 2.153614,-5.741225 0.294705,-0.420693 0.827441,-1.014613 1.586873,-1.311573 0.215361,-0.03712 0.487396,-0.01237 0.804771,0.02475 0.385383,0.197973 0.963459,0.40832 1.620877,0.33408 0.759433,-0.08661 1.439521,-0.507307 1.81357,-0.791893 0.192691,-0.136107 0.2607,-0.33408 0.192691,-0.395947 -0.181357,-0.14848 -1.020132,-0.804266 -2.017595,-0.730026 -0.702758,0.06187 -1.326173,0.470186 -1.700221,0.791893 -0.215362,0.08661 -0.419388,0.197973 -0.58941,0.29696 -0.47607,0.136109 -0.850119,0.395949 -1.167493,0.668162 0.816106,-1.583786 1.756895,-3.093332 2.811032,-4.528638 0.317374,-0.321707 0.986128,-0.85376 1.802234,-1.00224 0.238031,-0.02475 0.498731,0.01237 0.782102,0.09899 0.317374,0.25984 0.827441,0.606294 1.450855,0.680534 0.702758,0.08661 1.394181,-0.14848 1.779565,-0.321707 0.170022,-0.07424 0.249365,-0.25984 0.170022,-0.346453 -0.192692,-0.235093 -0.816106,-0.866133 -1.654882,-0.989867 -0.680089,-0.09899 -1.337507,0.160854 -1.722891,0.3712 -0.215361,0 -0.419388,0.03712 -0.600745,0.07424 -0.464727,0.03712 -0.87278,0.197974 -1.224159,0.395947 0.05667,-0.07424 0.226696,-0.247467 0.260701,-0.321707 0.940789,-1.163093 1.960921,-2.264319 3.060398,-3.291305 0.532736,-0.309333 1.552868,-0.754773 2.436983,-0.395947 0.226696,0.29696 0.646084,0.730027 1.224159,0.928 0.623415,0.210346 1.269499,0.123733 1.632213,0.03712 0.147352,-0.03712 0.215361,-0.210347 0.136017,-0.33408 -0.204026,-0.309333 -0.612079,-0.841386 -1.246829,-1.07648 -0.623414,-0.235093 -1.280833,-0.09899 -1.654881,0.02475 -0.555406,-0.210346 -1.144816,-0.14848 -1.654882,0 0.498731,-0.433066 1.008798,-0.853759 1.530199,-1.262079 0.09068,-0.07424 0.113348,-0.210347 0.04534,-0.29696 C 93.047531,4.876504 92.922849,4.851761 92.843506,4.926004 91.948056,5.61891 91.097945,6.36131 90.281839,7.14083 90.179826,7.2027 88.876323,8.526643 88.298248,9.170056 88.479605,8.638003 88.615623,8.031709 88.581618,7.413043 88.77431,7.02947 89.069015,6.32419 89.091685,5.594164 c 0.02267,-0.7424 -0.272036,-1.348693 -0.464728,-1.658027 -0.07934,-0.123733 -0.2607,-0.08661 -0.351379,0.07424 -0.226696,0.395947 -0.56674,1.138347 -0.555405,1.89312 0,0.70528 0.28337,1.237333 0.487397,1.546666 0.09068,1.026986 -0.385384,2.078719 -0.691424,2.660266 -1.031467,1.249706 -1.983591,2.573652 -2.833701,3.971839 0.09068,-0.433067 0.147352,-0.903253 0.136017,-1.41056 0.01134,-0.22272 0.02267,-0.470186 0,-0.717653 0.158688,-0.48256 0.351379,-1.274453 0.294705,-2.078719 -0.06801,-0.989867 -0.555405,-1.719893 -0.748097,-1.954986 -0.07934,-0.08661 -0.2607,0.01237 -0.351379,0.247466 -0.215361,0.507307 -0.487397,1.41056 -0.396718,2.264319 0.07934,0.767147 0.419388,1.311573 0.668753,1.63328 0.102014,0.321706 0.158688,0.63104 0.170023,0.903253 -0.01134,0.903253 -0.260701,1.707519 -0.430723,2.177706 -0.87278,1.546666 -1.632212,3.179946 -2.278296,4.862718 0,-0.445439 -0.01134,-0.940373 -0.113348,-1.460052 0,-0.235094 -0.01134,-0.494934 -0.034,-0.77952 0.09068,-0.569173 0.170022,-1.44768 0,-2.301439 -0.238031,-1.212587 -0.952124,-1.979733 -1.13348,-2.140586 -0.06801,-0.06187 -0.226697,0.123733 -0.30604,0.433066 -0.158688,0.618667 -0.317375,1.682773 -0.09068,2.635519 0.192692,0.804267 0.600745,1.33632 0.906785,1.658026 0.170022,0.321707 0.317374,0.618667 0.385383,0.866133 0.124683,0.85376 0.06801,1.63328 -0.01134,2.177706 -0.680088,1.942614 -1.201489,3.959466 -1.564203,6.038186 -0.06801,-0.44544 -0.192692,-0.928 -0.374048,-1.435307 -0.03401,-0.235093 -0.06801,-0.532053 -0.124683,-0.841386 -0.01134,-0.655786 -0.09068,-1.59616 -0.385384,-2.462293 -0.476062,-1.37344 -1.428185,-2.091093 -1.575538,-2.177706 -0.05667,-0.03712 -0.170022,0.22272 -0.204026,0.606293 -0.06801,0.730027 -0.04534,1.942613 0.340044,2.93248 0.317374,0.816639 0.804771,1.311573 1.17882,1.608532 0.249365,0.29696 0.464727,0.5568 0.58941,0.754774 0.28337,0.829013 0.374048,1.608532 0.396718,2.190079 -0.32871,2.326186 -0.442058,4.714238 -0.351379,7.139411 -0.170022,-0.457813 -0.385384,-0.940373 -0.680089,-1.44768 -0.06801,-0.247466 -0.147352,-0.556799 -0.249365,-0.903253 -0.147353,-0.705279 -0.408053,-1.682772 -0.850111,-2.524159 -0.770767,-1.460053 -1.949587,-2.004479 -2.062935,-2.041599 -0.04534,-0.01237 -0.09068,0.29696 -0.04534,0.754773 0.07934,0.81664 0.328709,2.128213 0.906785,3.118079 0.464727,0.791893 1.031467,1.212586 1.46219,1.460053 0.317374,0.247466 0.58941,0.420693 0.748097,0.569173 0.408053,0.730026 0.657419,1.44768 0.816106,2.016853 0.181357,2.734506 0.646084,5.382398 1.360177,7.918931 -0.260701,-0.420694 -0.58941,-0.85376 -0.986128,-1.286827 -0.113348,-0.235093 -0.260701,-0.556799 -0.430723,-0.915626 -0.317375,-0.717653 -0.782102,-1.670399 -1.394181,-2.437546 -1.133481,-1.422933 -2.459653,-1.695146 -2.527662,-1.695146 -0.034,0 0.01134,0.346453 0.170022,0.841386 0.2607,0.866133 0.816106,2.214826 1.620877,3.130453 0.623415,0.717653 1.269499,1.026986 1.745561,1.187839 0.374048,0.160854 0.680088,0.247467 0.85011,0.321707 0.544071,0.606293 0.929454,1.22496 1.212824,1.757013 0.884115,2.870612 2.09694,5.592745 3.615804,8.104531 -0.362714,-0.33408 -0.770767,-0.66816 -1.246829,-0.989867 -0.170022,-0.22272 -0.396718,-0.532053 -0.668754,-0.878506 -0.521401,-0.680533 -1.224159,-1.52192 -2.00626,-2.165333 -1.518864,-1.237333 -2.890376,-1.138346 -2.924381,-1.125973 -0.01133,0 0.136018,0.358827 0.442058,0.866133 0.498731,0.85376 1.405516,2.140586 2.459653,2.882986 0.793437,0.569173 1.48486,0.754773 1.994926,0.791893 0.396718,0.04949 0.702758,0.03712 0.861445,0.02475 0.691424,0.470186 1.235494,0.989866 1.654882,1.447679 1.76823,2.746879 3.899174,5.233919 6.347492,7.362131 -0.453392,-0.210346 -0.929454,-0.420693 -1.46219,-0.593919 -0.714093,-0.532054 -2.210287,-1.719893 -3.649808,-2.388053 -1.926917,-0.89088 -3.173746,-0.3712 -3.173746,-0.358827 -0.02267,0 2.085605,2.313813 4.171209,3.080959 1.700221,0.643414 2.652345,0.173227 2.935715,0 0.736763,0.247467 1.371512,0.5568 1.926917,0.85376 1.405516,1.15072 2.901711,2.190079 4.488584,3.093333 0.034,0.01237 0.05667,0.02475 0.09068,0.02475 0.06801,0 0.136018,-0.03712 0.181357,-0.11136 0.04534,-0.11136 0.01134,-0.235093 -0.07934,-0.29696 -2.856372,-1.620906 -5.418038,-3.674879 -7.63966,-6.038184 z"
     id="path80"
     style="stroke-width:1.18427" />
  <path
     class="c"
     d="m 140.99376,38.061767 c -0.0793,0 -1.40551,0.272213 -2.52766,1.695146 -0.61208,0.767146 -1.0768,1.719893 -1.39418,2.437546 -0.18136,0.358826 -0.32871,0.680533 -0.43072,0.915626 -0.39672,0.433067 -0.71409,0.866133 -0.98613,1.286826 0.71409,-2.536532 1.17882,-5.184425 1.36018,-7.918931 0.14735,-0.569173 0.39672,-1.286826 0.8161,-2.016852 0.15869,-0.136107 0.43073,-0.321707 0.7481,-0.569173 0.43072,-0.247467 0.99746,-0.66816 1.46219,-1.460053 0.58941,-0.989867 0.83878,-2.30144 0.90679,-3.118079 0.0453,-0.457814 0,-0.767147 -0.0453,-0.754773 -0.11335,0.03712 -1.29217,0.581546 -2.06294,2.041599 -0.45339,0.841386 -0.70276,1.806506 -0.85011,2.524159 -0.10201,0.346453 -0.19269,0.655787 -0.24937,0.903253 -0.2947,0.494933 -0.51006,0.989867 -0.68008,1.44768 0.10201,-2.425173 -0.0227,-4.813225 -0.35138,-7.139411 0.0227,-0.581547 0.11335,-1.361067 0.39672,-2.19008 0.12468,-0.197973 0.34004,-0.44544 0.58941,-0.754773 0.37404,-0.29696 0.86144,-0.791893 1.17882,-1.608533 0.38538,-0.989866 0.39671,-2.202452 0.34004,-2.932479 -0.034,-0.383573 -0.14735,-0.643413 -0.20403,-0.606293 -0.14735,0.08661 -1.11081,0.804267 -1.57554,2.177706 -0.2947,0.866133 -0.37404,1.806506 -0.38538,2.462293 -0.0567,0.321706 -0.0907,0.606293 -0.12468,0.841386 -0.18136,0.507307 -0.30604,0.989866 -0.37405,1.435306 -0.35138,-2.078719 -0.88411,-4.095572 -1.5642,-6.038184 -0.0794,-0.544427 -0.14736,-1.323947 -0.0113,-2.177706 0.0794,-0.247467 0.21536,-0.532054 0.38539,-0.866134 0.30604,-0.321706 0.72542,-0.866133 0.90678,-1.658026 0.2267,-0.940373 0.0567,-2.016852 -0.0907,-2.635519 -0.0793,-0.309333 -0.23803,-0.494933 -0.30604,-0.433066 -0.17002,0.160853 -0.89545,0.927999 -1.13348,2.140586 -0.17002,0.841386 -0.0907,1.732266 0,2.301439 -0.0227,0.284586 -0.034,0.544426 -0.034,0.77952 -0.10202,0.519679 -0.12469,1.014613 -0.11335,1.460053 -0.64609,-1.682773 -1.40552,-3.303679 -2.2783,-4.862719 -0.17002,-0.470187 -0.40805,-1.274453 -0.43072,-2.177706 0.0113,-0.272213 0.0793,-0.581547 0.17002,-0.903253 0.24937,-0.321707 0.58941,-0.878506 0.66876,-1.63328 0.0907,-0.866133 -0.18136,-1.769386 -0.39672,-2.264319 -0.0907,-0.235093 -0.27204,-0.346453 -0.35138,-0.247466 -0.19269,0.235093 -0.68009,0.965119 -0.7481,1.954986 -0.0567,0.804266 0.14735,1.596159 0.29471,2.078719 -0.0113,0.247467 0,0.494933 0,0.717653 -0.0113,0.507307 0.0453,0.989866 0.13601,1.422933 -0.85011,-1.385813 -1.80223,-2.709759 -2.8337,-3.971839 -0.30604,-0.581546 -0.7821,-1.633279 -0.69142,-2.660266 0.20403,-0.309333 0.4874,-0.841386 0.4874,-1.546666 0,-0.754773 -0.32871,-1.497173 -0.55541,-1.893119 -0.0907,-0.160854 -0.27204,-0.197974 -0.35138,-0.07424 -0.19269,0.309333 -0.47606,0.915626 -0.46473,1.658026 0.0227,0.7424 0.31738,1.435306 0.51007,1.818879 -0.034,0.618667 0.10201,1.22496 0.28337,1.757013 -0.57808,-0.643413 -1.17882,-1.262079 -1.81357,-1.868373 v -0.02475 c 0,0 -0.068,-0.06187 -0.17002,-0.136106 -0.81611,-0.77952 -1.66622,-1.52192 -2.56167,-2.214826 -0.0907,-0.07424 -0.21536,-0.04949 -0.27203,0.04949 -0.068,0.09899 -0.0453,0.235093 0.0453,0.29696 0.5214,0.40832 1.03146,0.829013 1.5302,1.262079 -0.51007,-0.14848 -1.09948,-0.210346 -1.65489,0 -0.37405,-0.123733 -1.03146,-0.25984 -1.65488,-0.02475 -0.62341,0.235094 -1.0428,0.767147 -1.24683,1.07648 -0.0793,0.123733 0,0.29696 0.13602,0.33408 0.36271,0.07424 1.0088,0.173227 1.63221,-0.03712 0.57808,-0.197973 0.99747,-0.63104 1.22416,-0.928 0.88412,-0.358826 1.89291,0.08661 2.43699,0.395947 1.09947,1.026986 2.1196,2.128212 3.06039,3.291305 0.0453,0.07424 0.068,0.123734 0.0794,0.123734 h 0.0227 c 0,0 0.11334,0.123733 0.17002,0.197973 -0.35138,-0.197973 -0.75943,-0.358827 -1.22416,-0.395947 -0.19269,-0.03712 -0.39672,-0.07424 -0.60075,-0.07424 -0.38538,-0.210346 -1.0428,-0.470186 -1.72289,-0.3712 -0.83877,0.123734 -1.45085,0.754774 -1.65488,0.989867 -0.0793,0.08661 0,0.272213 0.17002,0.346453 0.38539,0.173227 1.06548,0.40832 1.77957,0.321707 0.62341,-0.08661 1.13348,-0.420694 1.45085,-0.680534 0.28337,-0.08661 0.55541,-0.123733 0.78211,-0.09899 0.8161,0.14848 1.47352,0.680533 1.80223,1.00224 1.0428,1.435306 1.98359,2.944852 2.81103,4.528638 -0.31737,-0.272213 -0.70276,-0.532053 -1.16748,-0.66816 -0.17002,-0.09899 -0.36272,-0.210346 -0.58941,-0.29696 -0.37405,-0.334079 -0.99747,-0.742399 -1.70022,-0.791893 -1.0088,-0.07424 -1.84758,0.569174 -2.0176,0.730027 -0.068,0.06187 0,0.25984 0.19269,0.395946 0.38539,0.284587 1.05414,0.70528 1.81357,0.791893 0.64609,0.06187 1.22416,-0.14848 1.62088,-0.334079 0.31737,-0.04949 0.58941,-0.06187 0.80477,-0.02475 0.75943,0.296959 1.29217,0.890879 1.58687,1.311572 0.87278,1.831253 1.59821,3.761493 2.15362,5.741226 -0.2607,-0.358827 -0.58941,-0.692907 -1.03147,-0.952747 -0.13602,-0.160853 -0.30604,-0.33408 -0.49873,-0.51968 -0.32871,-0.457813 -0.87278,-1.039359 -1.56421,-1.274453 -1.09947,-0.383573 -2.15361,0.197974 -2.3123,0.284587 -0.0567,0.03712 0,0.247466 0.18136,0.470186 0.35138,0.40832 0.95212,1.026987 1.72289,1.323947 0.62342,0.235093 1.24683,0.1856 1.68889,0.09899 0.34004,0 0.62341,0.02475 0.8161,0.07424 0.66876,0.457813 1.07681,1.113599 1.30351,1.620906 0.5554,2.227199 0.90678,4.528638 1.05413,6.879571 -0.18135,-0.40832 -0.43072,-0.829013 -0.79343,-1.200213 -0.0907,-0.197973 -0.20403,-0.457813 -0.35138,-0.730026 -0.23803,-0.581547 -0.65742,-1.33632 -1.28084,-1.769387 -1.0768,-0.754773 -2.33497,-0.371199 -2.44831,-0.334079 -0.0453,0.01237 0,0.259839 0.14735,0.556799 0.27203,0.532054 0.7481,1.37344 1.46219,1.905493 0.56674,0.420693 1.16748,0.569173 1.62088,0.606293 0.34004,0.08661 0.63475,0.14848 0.80477,0.22272 0.51006,0.581547 0.75943,1.249706 0.89545,1.806506 0.0453,1.26208 0.0453,2.52416 -0.034,3.810986 -0.0793,1.361066 -0.24936,2.697386 -0.46472,4.008959 -0.0793,-0.44544 -0.21537,-0.915627 -0.46473,-1.385813 -0.0227,-0.235094 -0.0567,-0.5568 -0.12468,-0.903253 -0.0907,-0.692907 -0.32871,-1.59616 -0.81611,-2.2272 -0.91812,-1.175466 -2.30097,-1.088853 -2.36897,-1.088853 -0.034,0 -0.0227,0.272214 0.0567,0.643413 0.14735,0.655787 0.43072,1.6704 0.98613,2.462293 0.43072,0.606293 0.96346,0.952746 1.39418,1.138346 0.31737,0.1856 0.58941,0.309334 0.73676,0.395947 0.31738,0.680533 0.41939,1.373439 0.43072,1.954986 -0.5554,2.882986 -1.43952,5.654612 -2.61834,8.240637 0.0453,-0.457813 0.0567,-0.940373 -0.034,-1.447679 0.0567,-0.247467 0.13602,-0.606293 0.18136,-1.00224 0.11334,-0.767146 0.14735,-1.769386 -0.13602,-2.573652 -0.55541,-1.583787 -1.96092,-1.880746 -1.98359,-1.89312 -0.0113,0 -0.0567,0.284587 -0.0794,0.717653 -0.0227,0.7424 -0.034,1.905493 0.24937,2.907733 0.2267,0.754773 0.60074,1.286826 0.92945,1.633279 0.24937,0.284587 0.47607,0.470187 0.60075,0.581547 0.0907,0.680533 0.0227,1.311573 -0.10202,1.855999 -1.41685,2.944853 -3.21908,5.654612 -5.36136,8.055038 0.20403,-0.420694 0.38538,-0.89088 0.4874,-1.41056 0.46472,-0.680533 1.32617,-2.264319 1.36017,-3.674879 0.034,-1.880746 -1.21282,-2.623146 -1.20148,-2.623146 0,0 -0.87279,2.066346 -1.06548,3.872853 -0.14735,1.509546 0.37405,2.425172 0.57808,2.697385 -0.15869,0.66816 -0.43072,1.22496 -0.71409,1.70752 -2.22163,2.363306 -4.78329,4.417278 -7.63966,6.038185 -0.10202,0.04949 -0.13602,0.1856 -0.0794,0.29696 0.034,0.07424 0.10202,0.11136 0.18136,0.11136 0.034,0 0.068,0 0.0907,-0.02475 1.59821,-0.903253 3.08306,-1.954986 4.48858,-3.093333 0.55541,-0.296959 1.19016,-0.606293 1.92692,-0.853759 0.27203,0.160853 1.23549,0.63104 2.93571,0 2.08561,-0.754773 4.19388,-3.068586 4.17121,-3.080959 0,-0.01237 -1.24683,-0.532053 -3.17374,0.358826 -1.43952,0.66816 -2.93572,1.843626 -3.64981,2.388053 -0.53274,0.173226 -1.0088,0.383573 -1.46219,0.606293 2.45965,-2.128213 4.57926,-4.602879 6.34749,-7.362131 0.43072,-0.457813 0.97479,-0.96512 1.65488,-1.44768 0.17002,0 0.46473,0.02475 0.86145,-0.02475 0.51006,-0.04949 1.20149,-0.22272 1.99492,-0.791893 1.04281,-0.754773 1.96092,-2.029226 2.45966,-2.882986 0.2947,-0.507307 0.45339,-0.866133 0.44205,-0.866133 -0.034,-0.01237 -1.40551,-0.123734 -2.92438,1.125973 -0.7821,0.63104 -1.48486,1.484799 -2.00626,2.165332 -0.27203,0.346454 -0.51006,0.643414 -0.66875,0.878507 -0.47606,0.321706 -0.88412,0.655786 -1.24683,0.989866 1.50753,-2.511786 2.73169,-5.221545 3.6158,-8.104531 0.28337,-0.532053 0.66876,-1.138346 1.21283,-1.757012 0.17002,-0.07424 0.47606,-0.160854 0.85011,-0.321707 0.47606,-0.160853 1.12214,-0.48256 1.74556,-1.18784 0.80477,-0.915626 1.36018,-2.264319 1.62088,-3.130452 0.15868,-0.494933 0.19269,-0.85376 0.17002,-0.841386 z"
     id="path82"
     style="stroke-width:1.18427" />
  <path
     class="c"
     d="m 120.53444,4.022737 c 0.60074,0.383573 1.25816,0.494933 1.65488,0.544427 0.19269,0.02475 0.30604,-0.173227 0.21536,-0.358827 -0.19269,-0.383573 -0.57807,-1.00224 -1.20149,-1.41056 -0.62341,-0.408319 -1.31484,-0.494933 -1.73422,-0.494933 -0.1927,0 -0.29471,0.210347 -0.1927,0.383574 0.23804,0.371199 0.65742,0.952746 1.25817,1.336319 z"
     id="path84"
     style="stroke-width:1.18427" />
</svg>
